<svg width="20" height="20" viewBox="0 0 20 20" fill="none" xmlns="http://www.w3.org/2000/svg">
<path d="M10.4258 19.5484C3.83452 19.5484 2.07343 12.6774 2.86948 8.17548C2.90413 7.97954 3.16096 7.92309 3.27288 8.08762C3.61944 8.597 3.92784 9.33274 4.43881 9.26887C5.20682 9.17286 5.73889 2.39599 10.2906 0.48915C10.4351 0.428642 10.5862 0.543447 10.5704 0.699228C10.3453 2.90755 11.6712 6.06907 14.0202 6.06907C15.3668 6.06907 16.2881 4.99438 16.7485 3.91509C16.8883 3.58723 17.3674 3.62856 17.4476 3.97587C18.2691 7.53376 20.4651 19.5484 10.4258 19.5484Z" fill="#FF8F1F"/>
<path d="M8.11557 12.9229C8.27057 12.7927 8.50588 12.8821 8.54108 13.0815C8.62342 13.548 8.8942 14.3497 9.78241 14.3497C10.8508 14.3497 11.5759 11.4097 11.7661 10.5451C11.7974 10.4028 11.936 10.3062 12.0787 10.3352C14.7489 10.8781 16.0471 19.5484 10.1763 19.5484C5.90237 19.5484 6.87061 13.9688 8.11557 12.9229ZM15.4117 3.53336C15.5058 2.79735 14.1622 4.81043 14.1622 4.81043C14.1622 4.81043 15.1865 5.29426 15.4117 3.53336ZM1.87366 14.51C1.90198 14.1967 1.49889 13.3578 1.42752 13.6899C1.2567 14.4846 1.84534 14.8234 1.87366 14.51Z" fill="#FFB636"/>
<path d="M12.625 13.617C12.5249 13.1994 12.1658 14.1694 12.2109 14.5644C12.256 14.9595 12.8645 14.6161 12.625 13.617Z" fill="#FFD469"/>
</svg>
